<mxfile host="app.diagrams.net" modified="2023-11-15T03:26:36.468Z" agent="Mozilla/5.0 (Macintosh; Intel Mac OS X 10_15_7) AppleWebKit/537.36 (KHTML, like Gecko) Chrome/119.0.0.0 Safari/537.36" etag="QlChQ48Hsof6OVeEyqox" version="22.1.1" type="github">
  <diagram name="第 1 页" id="Ieqcy_TcXYrNZPft8lrP">
    <mxGraphModel dx="734" dy="466" grid="1" gridSize="10" guides="1" tooltips="1" connect="1" arrows="1" fold="1" page="1" pageScale="1" pageWidth="827" pageHeight="1169" math="0" shadow="0">
      <root>
        <mxCell id="0" />
        <mxCell id="1" parent="0" />
        <mxCell id="rPKAPofMUUAUzUdPVQre-2" value="&lt;div style=&quot;font-family: &amp;quot;JetBrains Mono&amp;quot;, monospace; font-size: 9.8pt;&quot;&gt;&lt;div style=&quot;font-size: 9.8pt;&quot;&gt;public class Fix implements HostnameVerifier {&lt;/div&gt;&lt;div style=&quot;font-size: 9.8pt;&quot;&gt;&amp;nbsp; &amp;nbsp; HostnameVerifier hv = HttpsURLConnection.getDefaultHostnameVerifier();&lt;/div&gt;&lt;div style=&quot;font-size: 9.8pt;&quot;&gt;&amp;nbsp; &amp;nbsp; @Override&lt;/div&gt;&lt;div style=&quot;font-size: 9.8pt;&quot;&gt;&amp;nbsp; &amp;nbsp; public boolean verify(String hostname, SSLSession session) {&lt;/div&gt;&lt;div style=&quot;font-size: 9.8pt;&quot;&gt;&amp;nbsp; &amp;nbsp; &amp;nbsp; &amp;nbsp; //Please change &quot;example.com&quot; as needed&lt;/div&gt;&lt;div style=&quot;font-size: 9.8pt;&quot;&gt;&amp;nbsp; &amp;nbsp; &amp;nbsp; &amp;nbsp; if (&quot;example.com&quot;.equals(hostname)) {&lt;/div&gt;&lt;div style=&quot;font-size: 9.8pt;&quot;&gt;&amp;nbsp; &amp;nbsp; &amp;nbsp; &amp;nbsp; &amp;nbsp; &amp;nbsp; return true;&lt;/div&gt;&lt;div style=&quot;font-size: 9.8pt;&quot;&gt;&amp;nbsp; &amp;nbsp; &amp;nbsp; &amp;nbsp; }&lt;/div&gt;&lt;div style=&quot;font-size: 9.8pt;&quot;&gt;&amp;nbsp; &amp;nbsp; &amp;nbsp; &amp;nbsp; return hv.verify(hostname, session);&lt;/div&gt;&lt;div style=&quot;font-size: 9.8pt;&quot;&gt;&amp;nbsp; &amp;nbsp; }&lt;/div&gt;&lt;div style=&quot;font-size: 9.8pt;&quot;&gt;}&lt;/div&gt;&lt;/div&gt;" style="text;strokeColor=none;align=left;fillColor=none;html=1;verticalAlign=middle;whiteSpace=wrap;rounded=0;" parent="1" vertex="1">
          <mxGeometry x="310" y="475" width="900" height="220" as="geometry" />
        </mxCell>
        <mxCell id="rPKAPofMUUAUzUdPVQre-3" value="" style="rounded=0;whiteSpace=wrap;html=1;fillColor=none;" parent="1" vertex="1">
          <mxGeometry x="340" y="512" width="660" height="20" as="geometry" />
        </mxCell>
        <mxCell id="rPKAPofMUUAUzUdPVQre-4" value="" style="rounded=0;whiteSpace=wrap;html=1;fillColor=none;" parent="1" vertex="1">
          <mxGeometry x="340" y="545" width="660" height="115" as="geometry" />
        </mxCell>
        <mxCell id="rPKAPofMUUAUzUdPVQre-20" style="edgeStyle=orthogonalEdgeStyle;rounded=0;orthogonalLoop=1;jettySize=auto;html=1;exitX=1;exitY=0.5;exitDx=0;exitDy=0;entryX=0;entryY=0.5;entryDx=0;entryDy=0;" parent="1" source="rPKAPofMUUAUzUdPVQre-21" target="rPKAPofMUUAUzUdPVQre-22" edge="1">
          <mxGeometry relative="1" as="geometry">
            <Array as="points">
              <mxPoint x="930" y="523" />
              <mxPoint x="930" y="523" />
            </Array>
          </mxGeometry>
        </mxCell>
        <mxCell id="rPKAPofMUUAUzUdPVQre-21" value="" style="ellipse;whiteSpace=wrap;html=1;aspect=fixed;" parent="1" vertex="1">
          <mxGeometry x="900" y="518" width="10" height="10" as="geometry" />
        </mxCell>
        <mxCell id="rPKAPofMUUAUzUdPVQre-22" value="" style="rounded=0;whiteSpace=wrap;html=1;" parent="1" vertex="1">
          <mxGeometry x="930" y="518" width="10" height="10" as="geometry" />
        </mxCell>
        <mxCell id="rPKAPofMUUAUzUdPVQre-23" value="" style="ellipse;whiteSpace=wrap;html=1;aspect=fixed;" parent="1" vertex="1">
          <mxGeometry x="960" y="518" width="10" height="10" as="geometry" />
        </mxCell>
        <mxCell id="rPKAPofMUUAUzUdPVQre-24" value="" style="endArrow=classic;html=1;rounded=0;exitX=1;exitY=0.5;exitDx=0;exitDy=0;entryX=0;entryY=0.5;entryDx=0;entryDy=0;" parent="1" source="rPKAPofMUUAUzUdPVQre-22" target="rPKAPofMUUAUzUdPVQre-23" edge="1">
          <mxGeometry width="50" height="50" relative="1" as="geometry">
            <mxPoint x="940" y="548" as="sourcePoint" />
            <mxPoint x="990" y="498" as="targetPoint" />
          </mxGeometry>
        </mxCell>
        <mxCell id="rPKAPofMUUAUzUdPVQre-25" style="edgeStyle=orthogonalEdgeStyle;rounded=0;orthogonalLoop=1;jettySize=auto;html=1;entryX=1;entryY=0.5;entryDx=0;entryDy=0;" parent="1" source="rPKAPofMUUAUzUdPVQre-26" target="rPKAPofMUUAUzUdPVQre-27" edge="1">
          <mxGeometry relative="1" as="geometry" />
        </mxCell>
        <mxCell id="rPKAPofMUUAUzUdPVQre-26" value="" style="ellipse;whiteSpace=wrap;html=1;aspect=fixed;" parent="1" vertex="1">
          <mxGeometry x="960" y="628" width="10" height="10" as="geometry" />
        </mxCell>
        <mxCell id="rPKAPofMUUAUzUdPVQre-27" value="" style="rounded=0;whiteSpace=wrap;html=1;" parent="1" vertex="1">
          <mxGeometry x="925" y="628" width="10" height="10" as="geometry" />
        </mxCell>
        <mxCell id="rPKAPofMUUAUzUdPVQre-28" value="" style="endArrow=classic;html=1;rounded=0;exitX=0.5;exitY=1;exitDx=0;exitDy=0;entryX=0.5;entryY=0;entryDx=0;entryDy=0;" parent="1" source="rPKAPofMUUAUzUdPVQre-23" target="rPKAPofMUUAUzUdPVQre-26" edge="1">
          <mxGeometry width="50" height="50" relative="1" as="geometry">
            <mxPoint x="980" y="608" as="sourcePoint" />
            <mxPoint x="1030" y="558" as="targetPoint" />
          </mxGeometry>
        </mxCell>
        <mxCell id="rPKAPofMUUAUzUdPVQre-29" value="order" style="edgeLabel;html=1;align=center;verticalAlign=middle;resizable=0;points=[];" parent="rPKAPofMUUAUzUdPVQre-28" vertex="1" connectable="0">
          <mxGeometry x="-0.2489" y="2" relative="1" as="geometry">
            <mxPoint as="offset" />
          </mxGeometry>
        </mxCell>
      </root>
    </mxGraphModel>
  </diagram>
</mxfile>
